<mxfile host="app.diagrams.net" modified="2024-03-17T16:52:33.060Z" agent="Mozilla/5.0 (Windows NT 10.0; Win64; x64) AppleWebKit/537.36 (KHTML, like Gecko) Chrome/122.0.0.0 Safari/537.36" etag="ACOZD-jSmQu9NzVjVqUl" version="24.0.7" type="github">
  <diagram name="Page-1" id="u2O_XTWlCKAYsq86dg9R">
    <mxGraphModel dx="792" dy="1905" grid="1" gridSize="10" guides="1" tooltips="1" connect="1" arrows="1" fold="1" page="1" pageScale="1" pageWidth="827" pageHeight="1169" math="0" shadow="0">
      <root>
        <mxCell id="0" />
        <mxCell id="1" parent="0" />
        <mxCell id="1ApH-VNSJrSQtVyUmo46-1" value="进入商详" style="rounded=0;whiteSpace=wrap;html=1;" vertex="1" parent="1">
          <mxGeometry x="40" y="90" width="280" height="100" as="geometry" />
        </mxCell>
        <mxCell id="1ApH-VNSJrSQtVyUmo46-21" value="" style="edgeStyle=orthogonalEdgeStyle;rounded=0;orthogonalLoop=1;jettySize=auto;html=1;entryX=0;entryY=0.75;entryDx=0;entryDy=0;" edge="1" parent="1" source="1ApH-VNSJrSQtVyUmo46-3" target="1ApH-VNSJrSQtVyUmo46-29">
          <mxGeometry relative="1" as="geometry">
            <mxPoint x="310" y="270" as="targetPoint" />
          </mxGeometry>
        </mxCell>
        <mxCell id="1ApH-VNSJrSQtVyUmo46-3" value="切换色卡" style="rounded=0;whiteSpace=wrap;html=1;" vertex="1" parent="1">
          <mxGeometry x="110" y="460" width="120" height="80" as="geometry" />
        </mxCell>
        <mxCell id="1ApH-VNSJrSQtVyUmo46-4" value="切换tab" style="rounded=0;whiteSpace=wrap;html=1;" vertex="1" parent="1">
          <mxGeometry x="110" y="610" width="120" height="60" as="geometry" />
        </mxCell>
        <mxCell id="1ApH-VNSJrSQtVyUmo46-6" value="切换tab" style="rounded=0;whiteSpace=wrap;html=1;" vertex="1" parent="1">
          <mxGeometry x="110" y="755" width="120" height="60" as="geometry" />
        </mxCell>
        <mxCell id="1ApH-VNSJrSQtVyUmo46-23" style="edgeStyle=orthogonalEdgeStyle;rounded=0;orthogonalLoop=1;jettySize=auto;html=1;curved=0;" edge="1" parent="1" source="1ApH-VNSJrSQtVyUmo46-13" target="1ApH-VNSJrSQtVyUmo46-3">
          <mxGeometry relative="1" as="geometry">
            <Array as="points">
              <mxPoint x="70" y="500" />
              <mxPoint x="70" y="500" />
            </Array>
          </mxGeometry>
        </mxCell>
        <mxCell id="1ApH-VNSJrSQtVyUmo46-13" value="" style="html=1;points=[[0,0,0,0,5],[0,1,0,0,-5],[1,0,0,0,5],[1,1,0,0,-5]];perimeter=orthogonalPerimeter;outlineConnect=0;targetShapes=umlLifeline;portConstraint=eastwest;newEdgeStyle={&quot;curved&quot;:0,&quot;rounded&quot;:0};" vertex="1" parent="1">
          <mxGeometry x="50" y="190" width="10" height="720" as="geometry" />
        </mxCell>
        <mxCell id="1ApH-VNSJrSQtVyUmo46-24" style="edgeStyle=orthogonalEdgeStyle;rounded=0;orthogonalLoop=1;jettySize=auto;html=1;curved=0;" edge="1" parent="1">
          <mxGeometry relative="1" as="geometry">
            <mxPoint x="60" y="639.5" as="sourcePoint" />
            <mxPoint x="110" y="639.5" as="targetPoint" />
            <Array as="points">
              <mxPoint x="70" y="639.5" />
              <mxPoint x="70" y="639.5" />
            </Array>
          </mxGeometry>
        </mxCell>
        <mxCell id="1ApH-VNSJrSQtVyUmo46-25" style="edgeStyle=orthogonalEdgeStyle;rounded=0;orthogonalLoop=1;jettySize=auto;html=1;curved=0;" edge="1" parent="1">
          <mxGeometry relative="1" as="geometry">
            <mxPoint x="60" y="784.5" as="sourcePoint" />
            <mxPoint x="110" y="784.5" as="targetPoint" />
            <Array as="points">
              <mxPoint x="70" y="784.5" />
              <mxPoint x="70" y="784.5" />
            </Array>
          </mxGeometry>
        </mxCell>
        <mxCell id="1ApH-VNSJrSQtVyUmo46-26" value="" style="swimlane;startSize=0;" vertex="1" parent="1">
          <mxGeometry x="370" y="-40" width="570" height="780" as="geometry">
            <mxRectangle x="370" y="-40" width="50" height="40" as="alternateBounds" />
          </mxGeometry>
        </mxCell>
        <mxCell id="1ApH-VNSJrSQtVyUmo46-29" value="" style="rounded=0;whiteSpace=wrap;html=1;" vertex="1" parent="1ApH-VNSJrSQtVyUmo46-26">
          <mxGeometry x="10" y="420" width="220" height="160" as="geometry" />
        </mxCell>
        <mxCell id="1ApH-VNSJrSQtVyUmo46-30" value="" style="rounded=0;whiteSpace=wrap;html=1;" vertex="1" parent="1ApH-VNSJrSQtVyUmo46-26">
          <mxGeometry x="30" y="130" width="200" height="210" as="geometry" />
        </mxCell>
        <mxCell id="1ApH-VNSJrSQtVyUmo46-31" value="普通商品" style="shape=note;size=20;whiteSpace=wrap;html=1;" vertex="1" parent="1ApH-VNSJrSQtVyUmo46-26">
          <mxGeometry x="30" y="20" width="200" height="70" as="geometry" />
        </mxCell>
        <mxCell id="1ApH-VNSJrSQtVyUmo46-36" value="抢购商品" style="shape=note;size=20;whiteSpace=wrap;html=1;" vertex="1" parent="1ApH-VNSJrSQtVyUmo46-26">
          <mxGeometry x="290" y="20" width="200" height="70" as="geometry" />
        </mxCell>
        <mxCell id="1ApH-VNSJrSQtVyUmo46-37" value="" style="rounded=0;whiteSpace=wrap;html=1;" vertex="1" parent="1ApH-VNSJrSQtVyUmo46-26">
          <mxGeometry x="290" y="130" width="200" height="210" as="geometry" />
        </mxCell>
      </root>
    </mxGraphModel>
  </diagram>
</mxfile>
